<?xml version="1.0" encoding="UTF-8" standalone="no"?>
<!-- Created with Inkscape (http://www.inkscape.org/) -->
<svg xmlns:dc="http://purl.org/dc/elements/1.1/" xmlns:cc="http://creativecommons.org/ns#" xmlns:rdf="http://www.w3.org/1999/02/22-rdf-syntax-ns#" xmlns:svg="http://www.w3.org/2000/svg" xmlns="http://www.w3.org/2000/svg" xmlns:sodipodi="http://sodipodi.sourceforge.net/DTD/sodipodi-0.dtd" xmlns:inkscape="http://www.inkscape.org/namespaces/inkscape" width="59.180988mm" height="13.620742mm" viewBox="0 0 59.180991 13.620742" version="1.1" id="svg8">
  <defs id="defs2">
    
  </defs>
  
  <metadata id="metadata5">
    
  </metadata>
  <g id="layer1" transform="translate(-17.726752,-257.81624)" style="display:inline;opacity:1"/>
  <g id="layer4" transform="translate(-17.726752,-15.816237)" style="display:inline"/>
  <g id="layer2" style="display:inline;opacity:1" transform="translate(-17.726752,-15.816237)"/>
  <g id="layer3" transform="translate(-17.726752,-15.816237)" style="display:inline">
    <g id="g895" transform="translate(-0.47441177,-0.63015468)">
      <path d="m 21.147211,22.1032 q 0.770467,0 1.392767,0.365477 0.632177,0.3556 0.987778,0.987778 0.365477,0.632178 0.365477,1.402645 0,0.770467 -0.3556,1.402645 -0.345722,0.6223 -0.958144,0.987777 -0.602545,0.3556 -1.353256,0.3556 -0.642056,0 -1.175456,-0.2667 -0.5334,-0.276577 -0.879122,-0.750711 v 2.89419 q 0,0.167922 -0.108656,0.276577 -0.108655,0.108656 -0.276577,0.108656 -0.167923,0 -0.276578,-0.108656 -0.09878,-0.108655 -0.09878,-0.276577 v -2.212623 q -0.0099,-0.02963 -0.0099,-0.0889 V 24.8591 q 0,-0.770467 0.3556,-1.402645 0.365478,-0.632178 0.987778,-0.987778 Q 20.37672,22.1032 21.147187,22.1032 Z m 0,4.810478 q 0.563033,0 1.017411,-0.2667 0.464256,-0.2667 0.721078,-0.730956 0.2667,-0.474133 0.2667,-1.056922 0,-0.582789 -0.2667,-1.047045 -0.256822,-0.474133 -0.721078,-0.740833 -0.454378,-0.276578 -1.017411,-0.276578 -0.563034,0 -1.017411,0.276578 -0.454378,0.2667 -0.721078,0.740833 -0.256823,0.464256 -0.256823,1.047045 0,0.167922 0.0099,0.246944 0.0099,0.01976 0.0099,0.04939 0.09878,0.770467 0.642056,1.264356 0.553155,0.493889 1.3335,0.493889 z" style="font-style:normal;font-variant:normal;font-weight:normal;font-stretch:normal;font-size:9.87777901px;line-height:1.25;font-family:Comfortaa;-inkscape-font-specification:Comfortaa;letter-spacing:0px;word-spacing:0px;fill:#f39200;fill-opacity:1;stroke:none;stroke-width:0.13229167;stroke-miterlimit:4;stroke-dasharray:none;stroke-opacity:0.94117647" id="path27"/>
      <path d="m 27.844654,22.1032 q 0.770467,0 1.392767,0.365477 0.632178,0.3556 0.987778,0.987778 0.365477,0.632178 0.365477,1.402645 v 2.321278 q 0,0.158044 -0.108655,0.2667 -0.108656,0.108656 -0.276578,0.108656 -0.167922,0 -0.276578,-0.09878 -0.108655,-0.108656 -0.108655,-0.276578 v -0.592667 q -0.345723,0.474134 -0.879123,0.750711 -0.5334,0.2667 -1.175455,0.2667 -0.750712,0 -1.363134,-0.3556 -0.602544,-0.365477 -0.958144,-0.987777 -0.345723,-0.632178 -0.345723,-1.402645 0,-0.770467 0.3556,-1.402645 0.365478,-0.632178 0.987778,-0.987778 0.632178,-0.365477 1.402645,-0.365477 z m 0,4.810478 q 0.563033,0 1.017411,-0.2667 0.454378,-0.2667 0.7112,-0.730956 0.2667,-0.474133 0.2667,-1.056922 0,-0.582789 -0.2667,-1.047045 -0.256822,-0.474133 -0.7112,-0.740833 -0.454378,-0.276578 -1.017411,-0.276578 -0.563034,0 -1.027289,0.276578 -0.454378,0.2667 -0.721078,0.740833 -0.256822,0.464256 -0.256822,1.047045 0,0.582789 0.256822,1.056922 0.2667,0.464256 0.721078,0.730956 0.464255,0.2667 1.027289,0.2667 z" style="font-style:normal;font-variant:normal;font-weight:normal;font-stretch:normal;font-size:9.87777901px;line-height:1.25;font-family:Comfortaa;-inkscape-font-specification:Comfortaa;letter-spacing:0px;word-spacing:0px;fill:#f39200;fill-opacity:1;stroke:none;stroke-width:0.13229167;stroke-miterlimit:4;stroke-dasharray:none;stroke-opacity:0.94117647" id="path29"/>
      <path d="m 33.245176,27.555734 q -0.602545,0 -0.987778,-0.474134 -0.375356,-0.484011 -0.375356,-1.234722 v -5.630334 q 0,-0.167922 0.108656,-0.2667 0.108655,-0.108656 0.2667,-0.108656 0.167922,0 0.2667,0.108656 0.108655,0.09878 0.108655,0.2667 v 5.630334 q 0,0.424744 0.167923,0.691444 0.1778,0.2667 0.4445,0.2667 h 0.246944 q 0.148167,0 0.237067,0.108656 0.0889,0.09878 0.0889,0.2667 0,0.167922 -0.128411,0.276578 -0.118534,0.09878 -0.316089,0.09878 z" style="font-style:normal;font-variant:normal;font-weight:normal;font-stretch:normal;font-size:9.87777901px;line-height:1.25;font-family:Comfortaa;-inkscape-font-specification:Comfortaa;letter-spacing:0px;word-spacing:0px;fill:#f39200;fill-opacity:1;stroke:none;stroke-width:0.13229167;stroke-miterlimit:4;stroke-dasharray:none;stroke-opacity:0.94117647" id="path31"/>
      <path d="m 37.143657,22.1032 q 0.770467,0 1.392767,0.365477 0.632178,0.3556 0.987778,0.987778 0.365478,0.632178 0.365478,1.402645 v 2.321278 q 0,0.158044 -0.108656,0.2667 -0.108656,0.108656 -0.276578,0.108656 -0.167922,0 -0.276578,-0.09878 -0.108655,-0.108656 -0.108655,-0.276578 v -0.592667 q -0.345723,0.474134 -0.879123,0.750711 -0.5334,0.2667 -1.175455,0.2667 -0.750711,0 -1.363134,-0.3556 -0.602544,-0.365477 -0.958144,-0.987777 -0.345723,-0.632178 -0.345723,-1.402645 0,-0.770467 0.3556,-1.402645 0.365478,-0.632178 0.987778,-0.987778 0.632178,-0.365477 1.402645,-0.365477 z m 0,4.810478 q 0.563033,0 1.017411,-0.2667 0.454378,-0.2667 0.7112,-0.730956 0.2667,-0.474133 0.2667,-1.056922 0,-0.582789 -0.2667,-1.047045 -0.256822,-0.474133 -0.7112,-0.740833 -0.454378,-0.276578 -1.017411,-0.276578 -0.563033,0 -1.027289,0.276578 -0.454378,0.2667 -0.721078,0.740833 -0.256822,0.464256 -0.256822,1.047045 0,0.582789 0.256822,1.056922 0.2667,0.464256 0.721078,0.730956 0.464256,0.2667 1.027289,0.2667 z" style="font-style:normal;font-variant:normal;font-weight:normal;font-stretch:normal;font-size:9.87777901px;line-height:1.25;font-family:Comfortaa;-inkscape-font-specification:Comfortaa;letter-spacing:0px;word-spacing:0px;fill:#f39200;fill-opacity:1;stroke:none;stroke-width:0.13229167;stroke-miterlimit:4;stroke-dasharray:none;stroke-opacity:0.94117647" id="path33"/>
      <path d="m 41.921877,27.555734 c -0.111948,0 -0.20414,-0.03622 -0.276577,-0.108656 -0.07244,-0.07244 -0.108656,-0.16463 -0.108656,-0.276578 v -4.632678 c 0,-0.111948 0.03622,-0.204141 0.108656,-0.276578 0.07244,-0.07244 0.164629,-0.108656 0.276577,-0.108656 0.111949,0 0.200849,0.03622 0.2667,0.108656 0.07244,0.07244 0.108656,0.16463 0.108656,0.276578 V 27.1705 c 0,0.111948 -0.03622,0.204141 -0.108656,0.276578 -0.06585,0.07244 -0.154753,0.108656 -0.2667,0.108656 z" style="font-style:normal;font-variant:normal;font-weight:normal;font-stretch:normal;font-size:9.87777901px;line-height:1.25;font-family:Comfortaa;-inkscape-font-specification:Comfortaa;letter-spacing:0px;word-spacing:0px;fill:#f39200;fill-opacity:1;stroke:none;stroke-width:0.13229167;stroke-miterlimit:4;stroke-dasharray:none;stroke-opacity:0.94117647" id="path35"/>
      <path d="m 49.923495,22.093322 q 0.582789,0 1.027289,0.276578 0.454378,0.276577 0.701323,0.790222 0.256822,0.503767 0.256822,1.175456 v 2.8448 q 0,0.167922 -0.108656,0.276578 -0.09878,0.09878 -0.2667,0.09878 -0.167922,0 -0.276577,-0.09878 Q 51.14834,27.3483 51.14834,27.180378 v -2.8448 q 0,-0.701323 -0.365478,-1.106312 -0.3556,-0.414866 -0.938389,-0.414866 -0.6223,0 -1.007533,0.414866 -0.385234,0.414867 -0.375356,1.086556 v 0.01976 2.8448 q 0,0.167922 -0.108655,0.276578 -0.09878,0.09878 -0.266701,0.09878 -0.167922,0 -0.276577,-0.09878 -0.108656,-0.108656 -0.108656,-0.276578 v -2.8448 q 0,-0.701323 -0.365478,-1.106312 -0.3556,-0.414866 -0.938389,-0.414866 -0.612422,0 -1.007533,0.404989 -0.395111,0.404989 -0.395111,1.037166 v 2.923823 q 0,0.167922 -0.108656,0.276578 -0.09878,0.09878 -0.2667,0.09878 -0.167922,0 -0.276578,-0.09878 -0.108655,-0.108656 -0.108655,-0.276578 v -4.642556 q 0,-0.167922 0.108655,-0.276578 0.108656,-0.108656 0.276578,-0.108656 0.167922,0 0.2667,0.108656 0.108656,0.108656 0.108656,0.276578 v 0.217311 q 0.276577,-0.316089 0.651933,-0.484011 0.385233,-0.1778 0.829734,-0.1778 0.543277,0 0.9779,0.246944 0.434622,0.246945 0.691444,0.691445 0.286456,-0.4445 0.740834,-0.691445 0.464255,-0.246944 1.037166,-0.246944 z" style="font-style:normal;font-variant:normal;font-weight:normal;font-stretch:normal;font-size:9.87777901px;line-height:1.25;font-family:Comfortaa;-inkscape-font-specification:Comfortaa;letter-spacing:0px;word-spacing:0px;fill:#f39200;fill-opacity:1;stroke:none;stroke-width:0.13229167;stroke-miterlimit:4;stroke-dasharray:none;stroke-opacity:0.94117647" id="path37"/>
      <path d="m 56.050342,27.605122 q -0.780345,0 -1.412523,-0.3556 -0.6223,-0.3556 -0.9779,-0.9779 -0.3556,-0.632178 -0.3556,-1.412522 0,-0.780345 0.3556,-1.412522 0.3556,-0.632178 0.9779,-0.987778 0.632178,-0.3556 1.412523,-0.3556 0.780344,0 1.402644,0.3556 0.622301,0.3556 0.977901,0.987778 0.365477,0.632177 0.365477,1.412522 0,0.780344 -0.3556,1.412522 -0.3556,0.6223 -0.987778,0.9779 -0.6223,0.3556 -1.402644,0.3556 z m 0,-0.691444 q 0.572911,0 1.027289,-0.2667 0.454378,-0.2667 0.7112,-0.730956 0.256822,-0.474133 0.256822,-1.056922 0,-0.592667 -0.256822,-1.056922 -0.256822,-0.474134 -0.7112,-0.740834 -0.454378,-0.2667 -1.027289,-0.2667 -0.563034,0 -1.027289,0.2667 -0.454378,0.2667 -0.721078,0.740834 -0.256822,0.464255 -0.256822,1.056922 0,0.582789 0.256822,1.056922 0.2667,0.464256 0.721078,0.730956 0.464255,0.2667 1.027289,0.2667 z" style="font-style:normal;font-variant:normal;font-weight:normal;font-stretch:normal;font-size:9.87777901px;line-height:1.25;font-family:Comfortaa;-inkscape-font-specification:Comfortaa;letter-spacing:0px;word-spacing:0px;fill:#f39200;fill-opacity:1;stroke:none;stroke-width:0.13229167;stroke-miterlimit:4;stroke-dasharray:none;stroke-opacity:0.94117647" id="path39"/>
      <path d="m 62.843631,22.093322 q 0.701322,0 1.254478,0.296333 0.563033,0.296334 0.879122,0.869245 0.316089,0.563033 0.316089,1.353255 v 2.568223 q 0,0.158044 -0.108655,0.2667 -0.108656,0.108656 -0.2667,0.108656 -0.167923,0 -0.276578,-0.108656 -0.108656,-0.108656 -0.108656,-0.2667 v -2.568223 q 0,-0.879122 -0.493889,-1.3335 -0.484011,-0.464255 -1.274233,-0.464255 -0.484011,0 -0.879123,0.187677 -0.385233,0.187678 -0.612422,0.523523 -0.227189,0.325966 -0.227189,0.730955 v 2.923823 q 0,0.167922 -0.108655,0.276578 -0.09878,0.09878 -0.2667,0.09878 -0.167923,0 -0.276578,-0.09878 -0.108656,-0.108656 -0.108656,-0.276578 v -4.642556 q 0,-0.167922 0.108656,-0.276578 0.108655,-0.108656 0.276578,-0.108656 0.167922,0 0.2667,0.108656 0.108655,0.108656 0.108655,0.276578 v 0.335844 q 0.325967,-0.365477 0.790223,-0.572911 0.464255,-0.207433 1.007533,-0.207433 z" style="font-style:normal;font-variant:normal;font-weight:normal;font-stretch:normal;font-size:9.87777901px;line-height:1.25;font-family:Comfortaa;-inkscape-font-specification:Comfortaa;letter-spacing:0px;word-spacing:0px;fill:#f39200;fill-opacity:1;stroke:none;stroke-width:0.13229167;stroke-miterlimit:4;stroke-dasharray:none;stroke-opacity:0.94117647" id="path41"/>
      <path d="m 67.157598,27.713778 q -0.237067,0 -0.404989,-0.167922 -0.167922,-0.167922 -0.167922,-0.404989 0,-0.246945 0.167922,-0.414867 0.1778,-0.167922 0.404989,-0.167922 0.237066,0 0.404989,0.1778 0.167922,0.167922 0.167922,0.404989 0,0.237067 -0.167922,0.404989 -0.167923,0.167922 -0.404989,0.167922 z" style="font-style:normal;font-variant:normal;font-weight:normal;font-stretch:normal;font-size:9.87777901px;line-height:1.25;font-family:Comfortaa;-inkscape-font-specification:Comfortaa;letter-spacing:0px;word-spacing:0px;fill:#f39200;fill-opacity:1;stroke:none;stroke-width:0.13229167;stroke-miterlimit:4;stroke-dasharray:none;stroke-opacity:0.94117647" id="path43"/>
      <path d="m 69.664547,27.555734 c -0.111948,0 -0.20414,-0.03622 -0.276577,-0.108656 -0.07244,-0.07244 -0.108656,-0.16463 -0.108656,-0.276578 v -4.632678 c 0,-0.111948 0.03622,-0.204141 0.108656,-0.276578 0.07244,-0.07244 0.164629,-0.108656 0.276577,-0.108656 0.111949,0 0.200849,0.03622 0.2667,0.108656 0.07244,0.07244 0.108656,0.16463 0.108656,0.276578 V 27.1705 c 0,0.111948 -0.03622,0.204141 -0.108656,0.276578 -0.06585,0.07244 -0.154753,0.108656 -0.2667,0.108656 z" style="font-style:normal;font-variant:normal;font-weight:normal;font-stretch:normal;font-size:9.87777901px;line-height:1.25;font-family:Comfortaa;-inkscape-font-specification:Comfortaa;letter-spacing:0px;word-spacing:0px;fill:#f39200;fill-opacity:1;stroke:none;stroke-width:0.13229167;stroke-miterlimit:4;stroke-dasharray:none;stroke-opacity:0.94117647" id="path45"/>
      <path d="m 74.43613,27.605122 q -0.780345,0 -1.412523,-0.3556 -0.6223,-0.3556 -0.9779,-0.9779 -0.3556,-0.632178 -0.3556,-1.412522 0,-0.780345 0.3556,-1.412522 0.3556,-0.632178 0.9779,-0.987778 0.632178,-0.3556 1.412523,-0.3556 0.780344,0 1.402644,0.3556 0.6223,0.3556 0.977901,0.987778 0.365477,0.632177 0.365477,1.412522 0,0.780344 -0.3556,1.412522 -0.3556,0.6223 -0.987778,0.9779 -0.6223,0.3556 -1.402644,0.3556 z m 0,-0.691444 q 0.572911,0 1.027289,-0.2667 0.454378,-0.2667 0.7112,-0.730956 0.256822,-0.474133 0.256822,-1.056922 0,-0.592667 -0.256822,-1.056922 -0.256822,-0.474134 -0.7112,-0.740834 -0.454378,-0.2667 -1.027289,-0.2667 -0.563034,0 -1.027289,0.2667 -0.454378,0.2667 -0.721078,0.740834 -0.256822,0.464255 -0.256822,1.056922 0,0.582789 0.256822,1.056922 0.2667,0.464256 0.721078,0.730956 0.464255,0.2667 1.027289,0.2667 z" style="font-style:normal;font-variant:normal;font-weight:normal;font-stretch:normal;font-size:9.87777901px;line-height:1.25;font-family:Comfortaa;-inkscape-font-specification:Comfortaa;letter-spacing:0px;word-spacing:0px;fill:#f39200;fill-opacity:1;stroke:none;stroke-width:0.13229167;stroke-miterlimit:4;stroke-dasharray:none;stroke-opacity:0.94117647" id="path47"/>
      <circle style="display:inline;opacity:1;fill:none;fill-opacity:1;stroke:#f39200;stroke-width:0.78399998;stroke-miterlimit:4;stroke-dasharray:none;stroke-opacity:1" id="path4842-6" cx="41.888992" cy="19.185019" r="2.2581158"/>
      <circle style="display:inline;opacity:1;fill:none;fill-opacity:1;stroke:#f39200;stroke-width:0.78399998;stroke-miterlimit:4;stroke-dasharray:none;stroke-opacity:1" id="path4842-6-3" cx="69.524788" cy="19.154018" r="2.2581158"/>
    </g>
  </g>
</svg>
